<?xml version="1.0" standalone="no"?>
<!DOCTYPE svg PUBLIC "-//W3C//DTD SVG 20010904//EN"
 "http://www.w3.org/TR/2001/REC-SVG-20010904/DTD/svg10.dtd">
<svg version="1.0" xmlns="http://www.w3.org/2000/svg"
 width="640.000000pt" height="640.000000pt" viewBox="0 0 640.000000 640.000000"
 preserveAspectRatio="xMidYMid meet">

<g transform="translate(0.000000,640.000000) scale(0.100000,-0.100000)"
fill="#000000" stroke="none">
<path d="M0 3200 l0 -3200 3200 0 3200 0 0 3200 0 3200 -3200 0 -3200 0 0
-3200z m1050 660 c0 -7 -143 -10 -410 -10 -267 0 -410 3 -410 10 0 7 143 10
410 10 267 0 410 -3 410 -10z m1410 0 c0 -6 -40 -10 -99 -10 -56 0 -103 4
-106 10 -4 6 32 10 99 10 64 0 106 -4 106 -10z m410 0 c0 -6 -42 -10 -105 -10
-63 0 -105 4 -105 10 0 6 42 10 105 10 63 0 105 -4 105 -10z m-650 -90 c-22
-60 -34 -77 -43 -63 -7 11 52 138 59 130 4 -4 -4 -34 -16 -67z m195 -14 c-14
-31 -30 -54 -35 -51 -6 4 -8 9 -6 13 2 4 16 34 32 67 15 34 29 53 31 45 2 -9
-8 -42 -22 -74z m219 36 c-9 -20 -20 -47 -24 -59 -13 -32 -34 -42 -27 -11 12
47 48 118 57 113 6 -4 3 -22 -6 -43z m-2417 26 c-37 -90 -51 -118 -58 -118
-14 0 -11 13 16 74 14 31 30 56 36 56 6 0 9 -6 6 -12z m591 -40 c-21 -53 -48
-93 -48 -71 0 26 44 123 56 123 10 0 8 -13 -8 -52z m201 0 c-21 -55 -38 -82
-46 -74 -9 9 42 126 54 126 9 0 7 -15 -8 -52z m1825 15 c-9 -21 -20 -50 -26
-65 -10 -27 -28 -39 -28 -18 0 20 49 120 60 120 6 0 4 -14 -6 -37z m-2494
-103 c0 -5 -25 -10 -55 -10 -30 0 -55 5 -55 10 0 6 25 10 55 10 30 0 55 -4 55
-10z m405 0 c4 -6 -33 -10 -105 -10 -72 0 -109 4 -105 10 3 6 50 10 105 10 55
0 102 -4 105 -10z m405 0 c0 -5 -25 -10 -55 -10 -30 0 -55 5 -55 10 0 6 25 10
55 10 30 0 55 -4 55 -10z m505 0 c4 -7 -50 -10 -154 -10 -101 0 -161 4 -161
10 0 6 58 10 154 10 93 0 157 -4 161 -10z m1515 0 c0 -6 -58 -10 -155 -10 -97
0 -155 4 -155 10 0 6 58 10 155 10 97 0 155 -4 155 -10z m1115 0 c4 -7 -150
-10 -454 -10 -301 0 -461 3 -461 10 0 7 158 10 454 10 293 0 457 -4 461 -10z
m1010 0 c4 -6 -33 -10 -105 -10 -72 0 -109 4 -105 10 3 6 50 10 105 10 55 0
102 -4 105 -10z m810 0 c4 -7 -100 -10 -304 -10 -201 0 -311 4 -311 10 0 6
108 10 304 10 193 0 307 -4 311 -10z m205 0 c0 -5 -25 -10 -55 -10 -30 0 -55
5 -55 10 0 6 25 10 55 10 30 0 55 -4 55 -10z m-146 -26 c4 -9 4 -19 2 -21 -8
-8 -26 8 -26 23 0 19 16 18 24 -2z m-5850 -16 c-16 -53 -44 -108 -54 -108 -14
0 -14 0 16 69 25 58 53 86 38 39z m185 -47 c-13 -34 -29 -61 -36 -61 -12 0 19
89 40 118 20 26 18 1 -4 -57z m200 -6 c-12 -30 -28 -55 -35 -55 -13 0 -1 37
34 105 25 49 26 10 1 -50z m500 31 c28 -65 34 -86 22 -86 -9 0 -40 61 -56 109
-12 39 14 21 34 -23z m131 34 c0 -20 -49 -120 -59 -120 -9 0 -3 19 36 118 6
14 23 16 23 2z m384 -62 c16 -38 21 -58 13 -58 -7 0 -22 25 -34 55 -41 100
-23 102 21 3z m420 50 c-17 -55 -44 -108 -55 -108 -6 0 -9 6 -6 13 38 90 51
117 59 117 5 0 6 -10 2 -22z m185 -48 c-13 -33 -29 -60 -36 -60 -12 0 0 38 34
103 25 50 27 20 2 -43z m228 58 c-37 -90 -51 -118 -58 -118 -14 0 -11 13 16
74 14 31 30 56 36 56 6 0 9 -6 6 -12z m203 9 c0 -17 -51 -122 -60 -125 -8 -3
-10 3 -5 18 15 48 46 110 55 110 6 0 10 -1 10 -3z m484 -69 c17 -40 21 -58 12
-58 -12 0 -56 93 -56 120 0 23 16 0 44 -62z m95 -3 c-12 -30 -29 -55 -36 -55
-8 0 -12 3 -10 8 3 4 17 34 32 67 33 74 46 56 14 -20z m525 53 c-16 -53 -44
-108 -54 -108 -14 0 -14 0 16 69 25 58 53 86 38 39z m488 -43 c17 -41 22 -65
15 -65 -11 0 -57 98 -57 120 0 28 20 3 42 -55z m707 -10 c-12 -30 -29 -55 -36
-55 -8 0 -12 3 -10 8 3 4 17 34 32 67 33 74 46 56 14 -20z m204 5 c-23 -53
-43 -77 -43 -51 0 21 51 121 59 116 5 -3 -2 -32 -16 -65z m222 49 c-15 -47
-47 -109 -55 -109 -14 0 -13 1 16 69 15 34 31 61 36 61 5 0 6 -9 3 -21z m184
-48 c-13 -34 -30 -61 -37 -61 -9 0 -8 9 4 38 9 20 18 44 21 52 9 22 25 41 30
36 3 -3 -5 -32 -18 -65z m631 65 c0 -16 -54 -126 -62 -126 -11 0 -4 23 23 86
11 24 24 44 29 44 6 0 10 -2 10 -4z m-5240 -146 c0 -6 -42 -10 -105 -10 -63 0
-105 4 -105 10 0 6 42 10 105 10 63 0 105 -4 105 -10z m500 0 c0 -5 -22 -10
-50 -10 -27 0 -50 5 -50 10 0 6 23 10 50 10 28 0 50 -4 50 -10z m910 0 c0 -5
-25 -10 -55 -10 -30 0 -55 5 -55 10 0 6 25 10 55 10 30 0 55 -4 55 -10z m610
0 c0 -6 -42 -10 -105 -10 -63 0 -105 4 -105 10 0 6 42 10 105 10 63 0 105 -4
105 -10z m710 0 c0 -6 -58 -10 -155 -10 -97 0 -155 4 -155 10 0 6 58 10 155
10 97 0 155 -4 155 -10z m400 0 c0 -6 -42 -10 -105 -10 -63 0 -105 4 -105 10
0 6 42 10 105 10 63 0 105 -4 105 -10z m810 0 c0 -6 -108 -10 -305 -10 -197 0
-305 4 -305 10 0 6 108 10 305 10 197 0 305 -4 305 -10z m1010 0 c0 -6 -42
-10 -105 -10 -63 0 -105 4 -105 10 0 6 42 10 105 10 63 0 105 -4 105 -10z
m-5780 -23 c0 -17 -51 -122 -60 -125 -8 -3 -10 3 -5 18 15 48 46 110 55 110 6
0 10 -1 10 -3z m195 -18 c-15 -47 -47 -109 -55 -109 -14 0 -13 1 16 69 15 34
31 61 36 61 5 0 6 -9 3 -21z m187 -44 c-15 -36 -32 -65 -39 -65 -7 0 -2 24 15
65 14 36 31 65 38 65 9 0 5 -20 -14 -65z m212 28 c-9 -21 -20 -50 -26 -65 -10
-27 -28 -39 -28 -18 0 20 49 120 60 120 6 0 4 -14 -6 -37z m213 25 c-38 -91
-51 -118 -59 -118 -10 0 -4 24 23 88 10 23 23 42 30 42 6 0 9 -6 6 -12z m197
-10 c-16 -53 -44 -108 -54 -108 -14 0 -14 0 16 69 25 58 53 86 38 39z m500
-15 c-9 -21 -20 -50 -26 -65 -9 -25 -28 -39 -28 -21 0 23 47 123 58 123 9 0 8
-9 -4 -37z m311 16 c-15 -47 -47 -109 -55 -109 -13 0 -13 1 6 46 9 22 20 49
25 62 11 28 33 30 24 1z m594 -31 c-12 -29 -23 -59 -26 -65 -6 -15 -23 -17
-23 -3 0 20 49 120 59 120 6 0 2 -23 -10 -52z m221 48 c0 -16 -54 -126 -62
-126 -10 0 -4 24 23 88 10 23 23 42 29 42 5 0 10 -2 10 -4z m194 -18 c-17 -55
-44 -108 -55 -108 -6 0 -9 6 -6 13 38 90 51 117 59 117 5 0 6 -10 2 -22z m188
-43 c-15 -36 -32 -65 -39 -65 -8 0 -2 23 15 65 15 36 32 65 39 65 8 0 2 -23
-15 -65z m212 28 c-9 -21 -20 -50 -26 -65 -10 -27 -28 -39 -28 -18 0 20 49
120 60 120 6 0 4 -14 -6 -37z m313 25 c-3 -7 -13 -33 -22 -58 -19 -49 -32 -67
-40 -58 -3 3 2 22 11 44 9 21 20 49 25 62 5 12 14 22 20 22 6 0 9 -6 6 -12z
m203 3 c0 -19 -50 -121 -60 -121 -8 0 -2 20 37 118 6 14 23 17 23 3z m200 -3
c0 -7 -11 -37 -25 -65 -28 -61 -54 -74 -29 -15 9 20 20 49 26 65 10 28 28 37
28 15z m189 -40 c-12 -29 -23 -59 -26 -65 -5 -14 -23 -18 -23 -6 0 22 47 123
57 123 9 0 7 -15 -8 -52z m621 42 c0 -20 -49 -120 -59 -120 -9 0 -3 19 36 118
6 14 23 16 23 2z m183 -52 c-28 -70 -30 -74 -39 -65 -9 9 39 127 53 127 7 0 3
-22 -14 -62z m227 59 c0 -17 -51 -122 -60 -125 -9 -3 -10 3 -5 19 17 54 45
109 55 109 5 0 10 -1 10 -3z m195 -18 c-15 -47 -47 -109 -55 -109 -13 0 -13 1
6 46 9 22 20 49 25 62 11 28 33 30 24 1z m205 11 c0 -21 -50 -120 -61 -120 -6
0 -9 6 -6 13 37 89 51 117 58 117 5 0 9 -4 9 -10z m200 0 c0 -22 -46 -120 -57
-120 -7 0 -2 24 15 65 22 58 42 83 42 55z m207 -2 c-37 -90 -51 -118 -58 -118
-14 0 -11 13 16 74 14 31 30 56 36 56 6 0 9 -6 6 -12z m-4531 -136 c-8 -13
-203 -15 -211 -3 -4 8 29 11 105 11 61 0 109 -4 106 -8z m704 0 c0 -13 -197
-15 -205 -3 -4 8 27 11 99 11 58 0 106 -4 106 -8z m605 -2 c-3 -5 -26 -10 -50
-10 -24 0 -47 5 -50 10 -4 6 15 10 50 10 35 0 54 -4 50 -10z m1920 0 c-4 -6
-100 -10 -256 -10 -159 0 -249 4 -249 10 0 6 92 10 256 10 167 0 253 -3 249
-10z m410 0 c-3 -5 -28 -10 -56 -10 -27 0 -49 5 -49 10 0 6 25 10 56 10 34 0
53 -4 49 -10z m605 0 c0 -5 -22 -10 -49 -10 -28 0 -53 5 -56 10 -4 6 15 10 49
10 31 0 56 -4 56 -10z m-5783 -32 c-37 -90 -51 -118 -58 -118 -14 0 -11 13 16
74 14 31 30 56 36 56 6 0 9 -6 6 -12z m203 8 c0 -16 -54 -126 -62 -126 -11 0
-4 23 23 86 11 24 24 44 29 44 6 0 10 -2 10 -4z m200 -5 c0 -20 -51 -121 -61
-121 -6 0 -9 6 -6 13 37 89 51 117 58 117 5 0 9 -4 9 -9z m200 -1 c0 -21 -53
-124 -57 -112 -6 15 37 122 49 122 4 0 8 -4 8 -10z m189 -42 c-12 -29 -23 -59
-26 -65 -5 -14 -23 -18 -23 -6 0 22 47 123 57 123 9 0 7 -15 -8 -52z m221 48
c0 -16 -54 -126 -62 -126 -10 0 -4 24 23 88 10 23 23 42 29 42 5 0 10 -2 10
-4z m69 -38 c27 -64 33 -88 23 -88 -8 0 -21 27 -59 118 -3 6 0 12 6 12 7 0 20
-19 30 -42z m415 -15 c-44 -100 -61 -98 -23 1 12 31 28 56 35 56 9 0 6 -16
-12 -57z m323 45 c-37 -90 -51 -118 -58 -118 -14 0 -11 13 16 74 14 31 30 56
36 56 6 0 9 -6 6 -12z m103 9 c0 -17 -51 -122 -60 -125 -9 -3 -10 3 -5 19 17
54 45 109 55 109 5 0 10 -1 10 -3z m100 0 c0 -17 -51 -122 -60 -125 -8 -3 -10
3 -5 18 15 48 46 110 55 110 6 0 10 -1 10 -3z m200 -7 c0 -22 -50 -121 -59
-116 -11 7 37 126 51 126 4 0 8 -4 8 -10z m84 -47 c-27 -60 -40 -80 -49 -72
-8 9 49 129 62 129 8 0 3 -20 -13 -57z m99 -5 c-28 -70 -30 -74 -39 -65 -9 9
39 127 53 127 7 0 3 -22 -14 -62z m97 10 c12 -29 24 -59 27 -65 3 -7 0 -13 -6
-13 -10 0 -61 101 -61 121 0 25 20 3 40 -43z m524 30 c-16 -53 -44 -108 -54
-108 -14 0 -14 0 16 69 25 58 53 86 38 39z m190 -35 c-44 -100 -61 -98 -23 1
12 31 28 56 35 56 9 0 6 -16 -12 -57z m305 5 c-12 -29 -23 -59 -26 -65 -3 -7
-9 -13 -15 -13 -10 0 -4 24 23 88 26 61 43 52 18 -10z m221 48 c0 -16 -54
-126 -62 -126 -11 0 -4 23 23 86 11 24 24 44 29 44 6 0 10 -2 10 -4z m200 -5
c0 -20 -51 -121 -61 -121 -6 0 -9 6 -6 13 37 89 51 117 58 117 5 0 9 -4 9 -9z
m184 -48 c-28 -63 -44 -86 -44 -63 0 27 44 120 56 120 9 0 5 -18 -12 -57z
m704 -1 c25 -64 26 -72 13 -72 -5 0 -14 12 -19 28 -6 15 -17 44 -26 65 -12 28
-13 37 -4 37 7 0 23 -26 36 -58z m532 54 c0 -16 -54 -126 -62 -126 -10 0 -4
24 23 88 10 23 23 42 29 42 5 0 10 -2 10 -4z m69 -38 c27 -64 33 -88 23 -88
-5 0 -21 27 -36 61 -30 69 -30 69 -16 69 6 0 19 -19 29 -42z m519 -10 c-24
-58 -38 -81 -46 -73 -9 9 42 125 55 125 8 0 5 -16 -9 -52z m-812 -64 c-3 -9
-6 -20 -6 -25 0 -5 -6 -9 -14 -9 -9 0 -12 8 -8 25 2 14 11 25 19 25 10 0 13
-6 9 -16z m605 -6 c-4 -12 -14 -24 -21 -26 -9 -3 -11 1 -7 12 4 10 7 22 7 27
0 5 7 9 15 9 11 0 12 -6 6 -22z m-5626 -18 c4 -6 -15 -10 -49 -10 -31 0 -56 5
-56 10 0 6 22 10 49 10 28 0 53 -4 56 -10z m405 0 c0 -5 -25 -10 -56 -10 -34
0 -53 4 -49 10 3 6 28 10 56 10 27 0 49 -4 49 -10z m405 0 c4 -6 -15 -10 -49
-10 -31 0 -56 5 -56 10 0 6 22 10 49 10 28 0 53 -4 56 -10z m505 0 c0 -6 -59
-10 -156 -10 -101 0 -153 3 -149 10 4 6 67 10 156 10 93 0 149 -4 149 -10z
m305 0 c4 -6 -15 -10 -49 -10 -31 0 -56 5 -56 10 0 6 22 10 49 10 28 0 53 -4
56 -10z m405 0 c0 -5 -25 -10 -56 -10 -34 0 -53 4 -49 10 3 6 28 10 56 10 27
0 49 -4 49 -10z m810 0 c0 -6 -75 -10 -205 -10 -130 0 -205 4 -205 10 0 6 75
10 205 10 130 0 205 -4 205 -10z m205 0 c4 -6 -17 -10 -55 -10 -38 0 -59 4
-55 10 3 6 28 10 55 10 27 0 52 -4 55 -10z m505 0 c0 -5 -25 -10 -55 -10 -30
0 -55 5 -55 10 0 6 25 10 55 10 30 0 55 -4 55 -10z m200 0 c0 -5 -25 -10 -56
-10 -34 0 -53 4 -49 10 3 6 28 10 56 10 27 0 49 -4 49 -10z m200 0 c0 -5 -25
-10 -56 -10 -34 0 -53 4 -49 10 3 6 28 10 56 10 27 0 49 -4 49 -10z m1015 0
c4 -6 -33 -10 -105 -10 -72 0 -109 4 -105 10 3 6 50 10 105 10 55 0 102 -4
105 -10z m605 0 c0 -6 -42 -10 -106 -10 -67 0 -103 4 -99 10 3 6 50 10 106 10
59 0 99 -4 99 -10z m205 0 c4 -6 -17 -10 -55 -10 -38 0 -59 4 -55 10 3 6 28
10 55 10 27 0 52 -4 55 -10z m-4291 -88 c-29 -65 -50 -92 -40 -50 11 49 46
119 55 113 6 -3 -1 -30 -15 -63z m505 -4 c-25 -60 -34 -74 -42 -61 -3 4 9 37
25 73 35 76 50 66 17 -12z m101 2 c-22 -60 -35 -78 -43 -63 -6 11 52 137 60
130 3 -4 -5 -34 -17 -67z m204 2 c-29 -65 -50 -92 -40 -50 11 49 46 119 56
113 5 -3 -1 -29 -16 -63z m1412 29 c-21 -40 -20 -63 5 -95 16 -21 17 -26 5
-26 -22 0 -46 40 -46 76 0 17 10 43 21 58 27 34 35 27 15 -13z m919 -13 c-9
-24 -21 -53 -26 -66 -5 -13 -13 -21 -18 -17 -9 5 22 96 42 123 18 24 19 3 2
-40z m-1095 38 c0 -2 -11 -28 -24 -59 -23 -51 -46 -81 -46 -59 0 20 50 122 60
122 5 0 10 -2 10 -4z m384 -18 c9 -12 16 -33 16 -46 0 -31 -27 -82 -44 -82
-11 0 -10 8 5 37 20 39 17 66 -9 96 -14 15 -14 17 1 17 9 0 23 -10 31 -22z
m1220 -15 c-9 -21 -20 -48 -24 -60 -9 -21 -30 -41 -30 -26 0 23 47 123 58 123
9 0 8 -9 -4 -37z m-3204 -103 c0 -6 -58 -10 -155 -10 -97 0 -155 4 -155 10 0
6 58 10 155 10 97 0 155 -4 155 -10z m710 0 c0 -6 -58 -10 -155 -10 -97 0
-155 4 -155 10 0 6 58 10 155 10 97 0 155 -4 155 -10z m810 0 c0 -6 -110 -10
-310 -10 -200 0 -310 4 -310 10 0 6 110 10 310 10 200 0 310 -4 310 -10z m400
0 c0 -5 -25 -10 -55 -10 -30 0 -55 5 -55 10 0 6 25 10 55 10 30 0 55 -4 55
-10z m410 0 c0 -6 -60 -10 -161 -10 -104 0 -158 3 -154 10 4 6 68 10 161 10
96 0 154 -4 154 -10z m810 0 c0 -6 -77 -10 -210 -10 -133 0 -210 4 -210 10 0
6 77 10 210 10 133 0 210 -4 210 -10z m-3607 -42 c43 -108 46 -118 34 -118
-10 0 -57 101 -57 123 0 12 18 8 23 -5z m416 -32 c27 -63 34 -86 23 -86 -5 0
-21 27 -36 61 -29 68 -30 69 -16 69 5 0 18 -20 29 -44z m131 35 c0 -20 -51
-121 -61 -121 -6 0 -9 6 -6 13 37 89 51 117 58 117 5 0 9 -4 9 -9z m394 -28
c-9 -21 -20 -50 -26 -65 -10 -27 -28 -39 -28 -18 0 20 49 120 60 120 6 0 4
-14 -6 -37z m213 25 c-37 -90 -51 -118 -58 -118 -14 0 -11 13 16 74 14 31 30
56 36 56 6 0 9 -6 6 -12z m198 -9 c-15 -47 -47 -109 -55 -109 -14 0 -13 1 16
69 15 34 31 61 36 61 5 0 6 -9 3 -21z m205 11 c0 -21 -53 -124 -57 -112 -6 15
37 122 49 122 4 0 8 -4 8 -10z m610 7 c0 -17 -51 -122 -60 -125 -8 -3 -10 3
-5 18 15 48 46 110 55 110 6 0 10 -1 10 -3z m200 -7 c0 -20 -49 -120 -59 -120
-9 0 -3 19 36 118 6 14 23 16 23 2z m484 -51 c30 -69 30 -69 16 -69 -10 0 -38
55 -54 108 -15 47 13 19 38 -39z m-2588 -82 c4 -4 -42 -6 -102 -5 l-109 2 90
5 c107 7 112 7 121 -2z m610 0 c4 -4 -43 -7 -105 -7 -62 0 -110 3 -108 8 6 9
204 9 213 -1z m1004 -1 c8 -2 -36 -4 -98 -5 -62 0 -111 2 -109 7 5 7 175 5
207 -2z m818 0 c3 -3 -45 -6 -107 -6 -62 0 -110 3 -108 8 6 8 206 6 215 -2z
m-253 -100 c-14 -31 -30 -54 -35 -51 -6 4 -8 9 -6 13 2 4 16 34 32 67 15 34
29 53 31 45 2 -9 -8 -42 -22 -74z m-2216 22 c-12 -29 -23 -59 -26 -65 -6 -15
-23 -17 -23 -3 0 20 49 120 59 120 6 0 2 -23 -10 -52z m221 48 c0 -15 -54
-126 -61 -126 -14 0 -11 13 16 74 14 31 29 56 35 56 5 0 10 -2 10 -4z m200 -5
c0 -21 -51 -121 -59 -116 -11 6 38 125 51 125 4 0 8 -4 8 -9z m184 -48 c-43
-100 -61 -98 -23 1 12 31 28 56 35 56 10 0 7 -15 -12 -57z m210 20 c-9 -21
-20 -48 -24 -60 -10 -23 -30 -40 -30 -24 0 24 46 121 58 121 9 0 8 -9 -4 -37z
m216 33 c0 -16 -54 -126 -62 -126 -11 0 -4 23 23 86 11 24 24 44 29 44 6 0 10
-2 10 -4z m195 -17 c-15 -47 -47 -109 -55 -109 -13 0 -13 1 6 46 9 22 20 49
25 62 11 28 33 30 24 1z m205 11 c0 -21 -53 -124 -57 -112 -6 15 37 122 49
122 4 0 8 -4 8 -10z m188 -42 c-21 -53 -48 -93 -48 -71 0 26 44 123 56 123 10
0 8 -13 -8 -52z m219 40 c-38 -91 -51 -118 -59 -118 -10 0 -4 24 23 88 10 23
23 42 30 42 6 0 9 -6 6 -12z m198 -9 c-15 -47 -47 -109 -55 -109 -13 0 -13 1
6 46 9 22 20 49 25 62 11 28 33 30 24 1z m398 -16 c-25 -62 -44 -95 -50 -89
-10 9 40 126 54 126 9 0 8 -10 -4 -37z m196 -15 c-12 -29 -23 -59 -26 -65 -6
-15 -23 -17 -23 -3 0 20 49 120 59 120 6 0 2 -23 -10 -52z m-2694 -88 c4 -7
-50 -10 -155 -10 -105 0 -159 3 -155 10 4 6 67 10 155 10 88 0 151 -4 155 -10z
m610 0 c4 -6 -17 -10 -55 -10 -38 0 -59 4 -55 10 3 6 28 10 55 10 27 0 52 -4
55 -10z m405 0 c0 -5 -25 -10 -55 -10 -30 0 -55 5 -55 10 0 6 25 10 55 10 30
0 55 -4 55 -10z m605 0 c4 -6 -17 -10 -55 -10 -38 0 -59 4 -55 10 3 6 28 10
55 10 27 0 52 -4 55 -10z m810 0 c4 -6 -17 -10 -55 -10 -38 0 -59 4 -55 10 3
6 28 10 55 10 27 0 52 -4 55 -10z m-2775 -90 c-13 -35 -28 -60 -37 -60 -8 0
-12 3 -10 8 3 4 17 34 31 66 34 76 46 65 16 -14z m524 48 c-16 -53 -44 -108
-54 -108 -14 0 -14 0 16 69 25 58 53 86 38 39z m80 -39 c29 -68 30 -69 16 -69
-5 0 -18 20 -29 44 -27 63 -34 86 -23 86 5 0 21 -27 36 -61z m306 -9 c-12 -33
-28 -60 -36 -60 -10 0 -10 8 3 38 44 106 71 125 33 22z m102 5 c19 -46 22 -65
13 -65 -11 0 -55 97 -55 121 0 27 20 1 42 -56z m528 55 c0 -20 -49 -120 -59
-120 -9 0 -3 19 36 118 6 14 23 16 23 2z m69 -32 c29 -69 35 -91 21 -86 -7 2
-23 30 -36 63 -28 67 -27 65 -14 65 6 0 19 -19 29 -42z m536 21 c-13 -41 -46
-108 -55 -114 -14 -9 -12 7 6 51 9 22 20 49 25 62 11 28 33 30 24 1z m199 -1
c-16 -53 -44 -108 -54 -108 -14 0 -14 0 16 69 25 58 53 86 38 39z m75 -20 c29
-69 35 -91 21 -86 -7 2 -23 30 -36 63 -28 67 -27 65 -14 65 6 0 19 -19 29 -42z
m541 38 c0 -16 -54 -126 -62 -126 -10 0 -4 24 23 88 10 23 23 42 29 42 5 0 10
-2 10 -4z m-1644 -122 c-3 -9 -6 -20 -6 -25 0 -5 -4 -9 -10 -9 -5 0 -10 11
-10 25 0 16 6 25 16 25 11 0 14 -5 10 -16z m614 8 c0 -13 -28 -47 -34 -42 -10
10 6 50 20 50 8 0 14 -4 14 -8z m-1480 -32 c0 -6 -75 -10 -205 -10 -130 0
-205 4 -205 10 0 6 75 10 205 10 130 0 205 -4 205 -10z m400 0 c0 -6 -42 -10
-105 -10 -63 0 -105 4 -105 10 0 6 42 10 105 10 63 0 105 -4 105 -10z m410 0
c0 -6 -42 -10 -105 -10 -63 0 -105 4 -105 10 0 6 42 10 105 10 63 0 105 -4
105 -10z m200 0 c0 -5 -25 -10 -55 -10 -30 0 -55 5 -55 10 0 6 25 10 55 10 30
0 55 -4 55 -10z m410 0 c0 -6 -43 -10 -110 -10 -67 0 -110 4 -110 10 0 6 43
10 110 10 67 0 110 -4 110 -10z m200 0 c0 -5 -25 -10 -55 -10 -30 0 -55 5 -55
10 0 6 25 10 55 10 30 0 55 -4 55 -10z m200 0 c0 -5 -25 -10 -55 -10 -30 0
-55 5 -55 10 0 6 25 10 55 10 30 0 55 -4 55 -10z m610 0 c0 -6 -77 -10 -210
-10 -133 0 -210 4 -210 10 0 6 77 10 210 10 133 0 210 -4 210 -10z"/>
</g>
</svg>
